<?xml version="1.0" encoding="UTF-8"?><svg id="Layer_2" xmlns="http://www.w3.org/2000/svg" viewBox="0 0 1554.99 317.3"><defs><style>.cls-1{stroke:#ef3340;stroke-width:1.2px;}.cls-1,.cls-2{fill:#ba0c2f;}</style></defs><g id="Layer_1-2"><path id="path6387-2-6-0-3-8-7-86-8-4-0-4-8" class="cls-2" d="M528.82.17l-7.81,41.63h-114.83L413.22.17h115.61ZM519.29,53.36l-5.55,32.73h-73.97l-2.34,11.17h74.21l-7.34,41.63h-115.61l15-85.92,115.61.39Z"/><path id="path6389-5-6-9-3-5-9-2-81-3-1-1-4" class="cls-2" d="M662.16,26.96c0,1.86-.15,3.71-.47,5.55l-1.64,9.3h-127.09L540.31.17h94.83c7.26-.2,14.28,2.63,19.37,7.81,5.17,5,8,11.95,7.81,19.14l-.16-.16ZM658.02,53.36l-9.22,53.12c-1.6,9.05-6.46,17.19-13.67,22.89-6.73,6.09-15.46,9.48-24.53,9.53h-95.06l15.62-85.53h41.63l-7.81,43.9h43.9l7.81-43.9h41.32Z"/><polygon class="cls-2" points="865.96 .17 858.15 41.8 816.51 41.8 824.33 .17 865.96 .17"/><polygon class="cls-2" points="780.04 .17 773.32 41.8 731.37 41.8 739.18 .17 780.04 .17"/><polygon class="cls-2" points="856.04 53.36 841.04 139.28 799.41 139.28 809.33 86.09 765.51 86.09 756.05 139.28 714.26 139.28 729.34 53.36 856.04 53.36"/><polygon class="cls-2" points="971.8 41.8 888.61 41.8 906.11 .17 968.6 .17 971.8 41.8"/><polygon class="cls-2" points="978.99 138.89 937.35 138.89 935.95 120.38 896.89 120.38 889.08 138.89 847.45 138.89 883.93 52.97 925.56 52.97 911.73 86.09 933.68 86.09 931.11 53.75 972.74 53.75 978.99 138.89"/><polygon class="cls-2" points="1186.22 .17 1168.41 41.8 1126.86 41.8 1144.67 .17 1186.22 .17"/><polygon class="cls-2" points="1108.11 41.8 1045.62 41.8 1063.74 .17 1105.3 .17 1108.11 41.8"/><polygon class="cls-2" points="1027.18 41.8 985.78 41.8 982.82 .17 1024.45 .17 1027.18 41.8"/><polygon class="cls-2" points="1163.1 53.36 1126.86 139.28 1073.66 139.28 1069.52 83.82 1046.09 139.28 992.89 139.28 986.64 53.36 1028.04 53.36 1030.15 78.75 1040.78 53.36 1109.2 53.36 1111.23 78.75 1121.94 53.36 1163.1 53.36"/><polygon class="cls-2" points="1319.17 .17 1284.72 41.8 1236.21 41.8 1270.66 .17 1319.17 .17"/><polygon class="cls-2" points="1233.64 .17 1225.83 41.8 1184.27 41.8 1192 .17 1233.64 .17"/><polygon class="cls-2" points="1294.64 138.89 1246.13 138.89 1219.26 82.03 1209.11 138.89 1167.55 138.89 1182.55 52.97 1275.27 52.97 1261.84 69.14 1294.64 138.89"/><path id="rect10016-6-4-7-5-8-0-1-2" class="cls-2" d="M0,.17v.86c50.77,40.77,101.55,40.77,168.88,40.77h225.36l1.64-9.3c.31-1.83.47-3.69.47-5.55.15-7.18-2.68-14.11-7.81-19.14C383.41,2.64,376.37-.18,369.08,0H0v.16ZM92.1,53.36c40.7,32.18,71.47,32.73,120.53,32.73h34.92l5.7-32.34-161.15-.39ZM265.04,53.36l-5.7,32.73-1.56,9.61v1.56l-7.81,41.63h41.63l9.45-52.8h43.98l-9.14,52.8h41.63l9.06-52.8v-2.34c-.47-5.16-2.64-10.03-6.17-13.83,5.62-3.91,9.76-9.61,11.72-16.17h-127.09v-.39ZM168.18,97.26c35.93,25.31,58.35,35.23,70.3,39.06l6.87-39.06h-77.18Z"/><path id="rect10016-6-5-4-5-4-7-2" class="cls-2" d="M1286.99,53.36l-13.36,16.17,7.42,16.56h60.23s80.85,0,121.39-32.34l-175.68-.39Z"/><path id="rect10018-7-0-6-8-4-6-4" class="cls-2" d="M1286.75,97.26l19.29,40.77c21.72-2.27,39.06-10.55,80.77-40.77h-100.06Z"/><path id="path11925-8-2-91-9-10" class="cls-2" d="M1330.97.17l-34.29,41.63h84.36s123.11,0,173.96-41.63h-224.03Z"/><g id="g15968-1-2-8-6-6-3-7"><path id="path648-6-7-0-33-9-1-5-2-21-0-0-3-3-54" class="cls-2" d="M750.59,312.62q0-4.76,1.33-4.76h1.33v-23.43h-1.33q-1.33,0-1.33-4.76v-4.69h13.75l4.92,7.81c1.59,2.7,3.34,5.31,5.23,7.81,0,0,2.5-3.67,5.23-7.81l4.92-7.81h13.59v4.69q0,4.76-1.33,4.76h-1.33v23.43h1.17q1.33,0,1.33,4.76v4.69h-16.95v-4.69q0-4.76,1.33-4.76h1.33v-5.55c.1-1.85.1-3.7,0-5.55,0,0-2.19,3.36-4.61,7.42-2.42,4.06-4.61,7.34-4.76,7.34-1.7-2.52-3.26-5.13-4.69-7.81-2.42-4.06-4.53-7.34-4.61-7.34-.17,1.84-.17,3.7,0,5.55v5.55h1.33q1.33,0,1.33,4.76v4.69h-17.18v-4.3Z"/></g><path id="path12723-7-3-5-0-6-7-6-2-1-4-7-8-68" class="cls-1" d="M820.73,295.59h334.17"/><path id="path12723-7-3-5-0-6-7-6-2-1-4-7-8-68-6" class="cls-1" d="M393.92,293.56h334.17"/><path id="path8089-9-8-3-5-5" class="cls-2" d="M486.64,173.97c.12,1.4.12,2.81,0,4.22l-2.81,15.62c-1.54,5.04-4.73,9.42-9.06,12.42,2.72,2.91,4.4,6.65,4.76,10.62v2.03l-7.19,40.7h-32.26l7.26-40.7h-33.35l-7.81,40.77h-31.25l18.75-106.23h72.64c5.54-.18,10.92,1.94,14.84,5.86,3.76,3.94,5.74,9.25,5.47,14.69ZM453.05,185.29h-33.59l-1.64,8.83h33.67l1.56-8.83Z"/><path id="path8091-2-1-6-3-0" class="cls-2" d="M592.8,173.97c.12,1.4.12,2.81,0,4.22l-9.92,56.71c-1.25,6.91-4.97,13.13-10.47,17.5-5.14,4.66-11.81,7.24-18.75,7.26h-48.12c-5.54.18-10.92-1.94-14.84-5.86-3.9-3.87-6.02-9.19-5.86-14.69-.12-1.4-.12-2.81,0-4.22l9.84-56.71c1.25-6.87,4.9-13.08,10.31-17.5,5.22-4.62,11.93-7.2,18.9-7.26h47.81c5.57-.18,10.97,1.93,14.92,5.86,3.88,3.88,5.98,9.2,5.78,14.69h.39ZM559.37,185.29h-33.59l-7.81,42.49h33.67l7.73-42.49Z"/><path id="path8093-8-4-8-77-4" class="cls-2" d="M703.02,173.97c.12,1.4.12,2.81,0,4.22l-2.81,15.62c-1.54,5.04-4.73,9.42-9.06,12.42,2.53,3.09,3.96,6.94,4.06,10.94v1.72l-2.81,15.62c-1.25,6.91-4.97,13.13-10.47,17.5-5.14,4.66-11.81,7.24-18.75,7.26h-76.16l18.75-106.23h76.08c5.57-.18,10.97,1.93,14.92,5.86,4.15,3.9,6.42,9.39,6.25,15.08ZM669.12,185.29h-37.18l-1.56,8.83h37.18l1.56-8.83ZM663.26,218.88h-37.1l-1.25,8.9h37.18l1.17-8.9Z"/><path id="path8095-1-0-1-7-7" class="cls-2" d="M808.78,173.97c.12,1.4.12,2.81,0,4.22l-9.92,56.71c-1.25,6.91-4.97,13.13-10.47,17.5-5.14,4.66-11.81,7.24-18.75,7.26h-48.12c-5.54.18-10.92-1.94-14.84-5.86-3.9-3.87-6.02-9.19-5.86-14.69-.12-1.4-.12-2.81,0-4.22l10-56.71c2.79-14.05,14.9-24.31,29.21-24.76h47.81c10.99-.44,20.26,8.12,20.69,19.11.02.48.02.95,0,1.43h.23ZM775.35,185.29h-33.28l-7.81,42.49h33.67l7.42-42.49Z"/><path id="path8097-4-7-8-1-3" class="cls-2" d="M919.08,153.42l-5.62,31.87h-32.81l-13.04,74.36h-31.79l13.12-74.36h-32.81l5.7-31.87h97.25Z"/><path id="path8099-7-9-4-5-3" class="cls-2" d="M959.85,153.42l-18.83,106.23h-31.87l18.83-106.23h31.87Z"/><path id="path8101-6-7-2-36-7" class="cls-2" d="M1066.01,153.42l-5.62,31.87h-65.54l-7.81,42.49h65.54l-5.7,31.87h-72.57c-11.04.39-20.3-8.24-20.7-19.27-.02-.42-.02-.85,0-1.27-.12-1.4-.12-2.81,0-4.22l9.92-56.71c2.79-14.05,14.9-24.31,29.21-24.76h73.27Z"/><path id="path8103-8-7-6-3-0" class="cls-2" d="M1172.24,153.42l-5.62,31.87h-65.22l-1.56,8.83h40.62c5.6-.22,11.03,1.91,15,5.86,3.89,3.88,6.01,9.19,5.86,14.69.12,1.43.12,2.87,0,4.3l-2.89,15.62c-1.21,6.9-4.91,13.13-10.39,17.5-5.15,4.63-11.82,7.21-18.75,7.26h-72.65l5.7-31.87h65.46l1.64-8.83h-40.7c-5.62.21-11.07-1.91-15.08-5.86-3.87-3.83-5.99-9.09-5.86-14.53,0-1.49.14-2.98.39-4.45l2.81-15.62c1.22-6.86,4.85-13.07,10.23-17.5,5.24-4.64,11.98-7.22,18.98-7.26h72.02Z"/><g id="g14090-1"><path id="rect10016-6-5-8-2-2-9-4" class="cls-2" d="M1176.3,194.12l-4.06,22.97c20.7-2.5,49.05-8.51,67.1-22.97h-63.04Z"/><path id="path11925-4-4-2-5-4" class="cls-2" d="M1183.41,153.42l-5.55,31.87c10.86,0,95.61-2.11,132.01-31.87h-126.46Z"/></g><g id="g13914-4"><path id="rect10016-6-5-8-9-2-7" class="cls-2" d="M309.48,194.12c16.48,13.12,41.56,19.29,61.47,22.26l3.98-22.26h-65.46Z"/><path id="path11925-4-6-0-2" class="cls-2" d="M238.95,153.42c39.06,31.87,133.26,31.87,133.26,31.87h4.3l5.62-31.87h-143.18Z"/></g></g></svg>